<svg width="1920" height="1080" viewBox="0 0 1920 1080" xmlns="http://www.w3.org/2000/svg"><path d="M2170.576353667565,1112C2181.3809564322837,1137.1583503453965,2175.5294880132324,1146.3873289710855,2167.7232927199143,1178.7112369116219C2159.9170974265962,1211.0351448521583,2150.7758160373846,1294.8308953951769,2123.7391819076574,1305.9434476432182C2096.7025477779302,1317.0559998912595,2042.5197747562092,1229.6510302386596,2005.5034879415502,1245.3865503998702C1968.4872011268913,1261.1220705610808,1931.0587090099623,1399.3196553146327,1901.641461019704,1400.356568610482C1872.2242130294455,1401.3934819063315,1862.8910932220313,1272.2781956620895,1829,1251.6080301749662C1795.1089067779687,1230.9378646878429,1723.5356150575394,1296.4044861419402,1698.294901687516,1276.335575687742C1673.0541883174924,1256.2666652335438,1686.3701808078483,1168.8127479386226,1677.5557197798585,1131.1945674497777C1668.7412587518686,1093.5763869609327,1643.4516052016336,1081.150455094484,1645.4081355195765,1050.6264927546722C1647.3646658375194,1020.1025304148606,1664.1354645880788,972.5088556456617,1689.2949016875157,948.0507934109075C1714.4543387869526,923.5927311761534,1756.4736648941664,922.1126796830451,1796.3647581161977,903.878119346147C1836.255851338229,885.6435590092487,1884.4180709869893,836.2452886958577,1928.6414610197037,838.643431389518C1972.864851052418,841.0415740831784,2038.605743869115,907.0314553468982,2061.705098312484,918.2669755081088C2084.804452755853,929.5024956693194,2060.3724913767314,887.8075258015925,2067.2375876799174,906.0565523567816C2074.1026839831034,924.3055789119707,2085.672548466993,993.437226898707,2102.895676131601,1027.7611348392434C2120.118803796209,1062.0850427797798,2159.771750902846,1086.8416496546035,2170.576353667565,1112C2181.3809564322837,1137.1583503453965,2175.5294880132324,1146.3873289710855,2167.7232927199143,1178.7112369116219" fill="#e91e63"/></svg>