<svg width="1920" height="1080" viewBox="0 0 1920 1080" xmlns="http://www.w3.org/2000/svg"><path d="M291.1008908504247,45.99999999999993C281.465202942476,72.79365672953334,204.1918169171133,85.14425716962012,185.8231620623483,110.00597311798039C167.4545072075833,134.86768906634066,193.100777786465,179.56152506452474,180.8889617218348,195.1702956901616C168.6771456572046,210.77906631579845,138.365515604243,184.27753319917582,112.55226567456707,203.65859687180145C86.73901574489113,223.03966054442708,61.434839756207026,297.5985070153271,26.00946214377919,311.4566777259154C-9.415915468648649,325.3148484365038,-58.71423992395604,302.29932790630727,-99.99999999999994,286.8076211353316C-141.28576007604386,271.31591436435593,-196.6909106079511,251.41212274839538,-221.7050983124842,218.50643710006142C-246.7192860170173,185.60075145172746,-253.3281621191772,126.83205932681139,-250.0851262271986,89.37350724532791C-246.84209033522,51.91495516384443,-222.07378472413606,34.039971766672146,-202.24688296061274,-6.244875388839489C-182.4199811970894,-46.529722544351124,-140.4981961394941,-129.07199197067655,-131.12371564605866,-152.3355756877419C-121.74923515262323,-175.59915940480727,-168.36933143112958,-128.73521715488988,-146.00000000000014,-145.8263776912316C-123.63066856887069,-162.91753822757335,-43.19191011136266,-254.7130636079908,3.0922729407180647,-254.88253890579233C49.37645599279878,-255.05201420359387,90.43061348466094,-159.99974468846983,131.70509831248415,-146.84322947804083C172.97958314030737,-133.68671426761182,232.08381670806463,-191.9579913463552,250.73918190765733,-175.94344764321838C269.39454710725005,-159.92890394008157,236.91033801957911,-87.74654186642312,243.63728951004035,-50.75596725922006C250.36424100050158,-13.765392652017006,300.7365787583734,19.20634327046652,291.1008908504247,45.99999999999993C281.465202942476,72.79365672953334,204.1918169171133,85.14425716962012,185.8231620623483,110.00597311798039" fill="#e91e63"/></svg>